HIERARCHY
ROOT Hips
{
 OFFSET 0.000000 0.000000 0.000000
 CHANNELS 6 Xposition Yposition Zposition Yrotation Xrotation Zrotation
 JOINT Chest
 {
  OFFSET 0.000000 9.585900 0.002600
  CHANNELS 3 Yrotation Xrotation Zrotation
  JOINT Chest2
  {
   OFFSET 0.000000 9.601200 -0.005300
   CHANNELS 3 Yrotation Xrotation Zrotation
   JOINT Chest3
   {
    OFFSET 0.000000 9.561800 0.000000
    CHANNELS 3 Yrotation Xrotation Zrotation
    JOINT Chest4
    {
     OFFSET 0.000000 9.552100 0.000000
     CHANNELS 3 Yrotation Xrotation Zrotation
     JOINT Neck
     {
      OFFSET 0.000000 14.453000 0.000000
      CHANNELS 3 Yrotation Xrotation Zrotation
      JOINT Head
      {
       OFFSET 0.000000 8.936500 -0.011300
       CHANNELS 3 Yrotation Xrotation Zrotation
       End Site
       {
        OFFSET 0.000000 17.073600 -0.006000
       }
      }
     }
     JOINT RightCollar
     {
      OFFSET -2.921100 9.558500 0.000000
      CHANNELS 3 Yrotation Xrotation Zrotation
      JOINT RightShoulder
      {
       OFFSET -13.519700 0.000000 0.000000
       CHANNELS 3 Yrotation Xrotation Zrotation
       JOINT RightElbow
       {
        OFFSET 0.000000 -29.696600 0.000000
        CHANNELS 3 Yrotation Xrotation Zrotation
        JOINT RightWrist
        {
         OFFSET 0.000000 -24.004700 0.000000
         CHANNELS 3 Yrotation Xrotation Zrotation
         End Site
         {
          OFFSET 0.000000 -17.728500 0.000000
         }
        }
       }
      }
     }
     JOINT LeftCollar
     {
      OFFSET 2.921100 9.558500 0.000000
      CHANNELS 3 Yrotation Xrotation Zrotation
      JOINT LeftShoulder
      {
       OFFSET 13.519700 0.000000 0.000000
       CHANNELS 3 Yrotation Xrotation Zrotation
       JOINT LeftElbow
       {
        OFFSET 0.000000 -29.696600 0.000000
        CHANNELS 3 Yrotation Xrotation Zrotation
        JOINT LeftWrist
        {
         OFFSET 0.000000 -24.004700 0.000000
         CHANNELS 3 Yrotation Xrotation Zrotation
         End Site
         {
          OFFSET 0.000000 -17.728500 0.000000
         }
        }
       }
      }
     }
    }
   }
  }
 }
 JOINT RightHip
 {
  OFFSET -7.771700 -0.012900 -0.001300
  CHANNELS 3 Yrotation Xrotation Zrotation
  JOINT RightKnee
  {
   OFFSET 0.000000 -40.869800 0.001200
   CHANNELS 3 Yrotation Xrotation Zrotation
   JOINT RightAnkle
   {
    OFFSET 0.000000 -39.717900 0.002100
    CHANNELS 3 Yrotation Xrotation Zrotation
    JOINT RightToe
    {
     OFFSET 0.000000 -4.965400 11.033500
     CHANNELS 3 Yrotation Xrotation Zrotation
     End Site
     {
      OFFSET 0.000000 -1.423100 5.872300
     }
    }
   }
  }
 }
 JOINT LeftHip
 {
  OFFSET 7.771700 -0.012900 -0.001300
  CHANNELS 3 Yrotation Xrotation Zrotation
  JOINT LeftKnee
  {
   OFFSET 0.000000 -40.869800 0.001200
   CHANNELS 3 Yrotation Xrotation Zrotation
   JOINT LeftAnkle
   {
    OFFSET 0.000000 -39.717900 0.002100
    CHANNELS 3 Yrotation Xrotation Zrotation
    JOINT LeftToe
    {
     OFFSET 0.000000 -4.965400 11.033500
     CHANNELS 3 Yrotation Xrotation Zrotation
     End Site
     {
      OFFSET 0.000000 -1.423100 5.872300
     }
    }
   }
  }
 }
}
MOTION
Frames: 12
Frame Time: 0.008333
0.000000 85.388000 0.000000 0.000000 -5.767877 0.000000 0.000000 11.653817 0.000000 0.000000 -5.885947 0.000000 0.000000 -0.000000 0.000000 0.000000 -0.000000 0.000000 0.000000 12.528835 0.000000 0.000000 0.711642 0.000000 0.000000 -0.000000 0.000000 0.000000 0.000000 -90.000000 0.000000 -2.309062 0.000000 0.000000 2.309062 0.000000 0.000000 -0.000000 0.000000 0.000000 -0.000000 90.000000 0.000000 -2.309062 0.000000 0.000000 2.309062 0.000000 0.000000 8.520406 0.000000 0.000000 1.905762 0.000000 -0.000000 -4.658285 0.000000 0.000000 -0.000000 0.000000 0.000000 8.520406 0.000000 0.000000 1.905762 0.000000 -0.000000 -4.658285 0.000000 0.000000 -0.000000 0.000000
-4.170205 55.276420 -23.498898 179.365554 -16.321288 -1.804220 0.962586 15.520444 0.662862 0.104268 1.487019 0.069554 0.130621 2.473356 0.111941 0.931422 13.846746 0.733952 0.006098 14.950703 -2.414360 0.515920 -9.915205 -2.465571 0.195295 -0.729529 2.825165 4.424019 -3.827871 -9.908381 -88.470697 -71.883595 119.340633 -13.649385 -10.116874 7.189997 -5.893201 -1.597920 2.223394 1.950505 -8.951751 7.511910 60.977157 -55.657620 -99.948062 6.714244 -9.946640 2.562234 0.044671 -58.460691 13.174662 -109.478169 88.807712 -113.922828 -10.631589 -21.963620 14.332150 -0.024568 -0.053036 0.001277 9.985006 -55.433708 -5.222091 114.272965 77.386123 112.429549 -6.631513 -23.640840 0.544242 0.058954 0.206910 0.027593
-4.170299 55.276759 -23.499411 179.360790 -16.323750 -1.809386 0.956560 15.516282 0.665496 0.097656 1.483781 0.067159 0.137244 2.476527 0.114148 0.911418 13.836149 0.728523 0.003647 15.010055 -2.387797 0.542518 -9.849645 -2.463208 0.222970 -0.701903 2.801521 4.423476 -3.840246 -9.890176 -86.860528 -71.251711 117.841980 -13.909530 -9.478441 7.315787 -5.869543 -1.575049 2.218854 1.988977 -8.874598 7.433944 60.757141 -55.290352 -99.764829 6.952827 -10.020346 2.500680 0.043330 -58.458513 13.188671 -109.240985 88.804701 -113.676865 -10.684244 -21.956969 14.339416 -0.033209 -0.048055 0.003333 9.972287 -55.434199 -5.204083 114.289289 77.385233 112.443398 -6.631933 -23.639854 0.542398 0.060607 0.205075 0.028015
-4.171194 55.277245 -23.500549 179.359692 -16.329603 -1.811547 0.951281 15.518207 0.666042 0.083296 1.476513 0.067285 0.155033 2.485956 0.113808 0.875307 13.822148 0.730335 0.025189 15.075930 -2.377080 0.588989 -9.792011 -2.479033 0.248295 -0.652612 2.759029 4.419377 -3.878988 -9.869567 -85.198685 -70.500824 116.306818 -14.229487 -8.746244 7.486289 -5.862934 -1.535845 2.209109 2.042569 -8.861730 7.391809 60.502588 -54.798820 -99.539798 7.197631 -10.061071 2.461427 0.047244 -58.452590 13.192549 -109.063917 88.797434 -113.491662 -10.726369 -21.953962 14.346689 0.004524 -0.039976 0.007486 9.964336 -55.429429 -5.195736 114.295339 77.383861 112.448005 -6.632159 -23.637796 0.542081 0.060391 0.202934 0.027520
-4.172674 55.277355 -23.500502 179.361712 -16.327639 -1.811258 0.939188 15.512616 0.662887 0.082390 1.475728 0.067522 0.155284 2.484616 0.112994 0.865778 13.819221 0.733115 0.081943 15.178998 -2.373872 0.623103 -9.782012 -2.501840 0.261405 -0.634915 2.744522 4.400997 -3.898557 -9.882520 -83.529444 -69.622985 114.795927 -14.543064 -7.951213 7.672840 -5.879337 -1.484356 2.209525 2.120256 -8.846032 7.302859 60.241600 -54.314638 -99.315896 7.447694 -10.081977 2.431278 0.061676 -58.454507 13.165234 -109.162288 88.801647 -113.590734 -10.655093 -21.965714 14.337368 0.012779 -0.037968 0.005560 9.971172 -55.430171 -5.211271 114.264749 77.380313 112.423551 -6.621564 -23.635776 0.539997 0.053408 0.204955 0.023985
-4.173464 55.277675 -23.501123 179.361998 -16.329776 -1.813960 0.924710 15.508555 0.664322 0.091093 1.479353 0.065390 0.133518 2.473710 0.117756 0.865928 13.821559 0.733345 0.132992 15.222417 -2.390320 0.715375 -9.715209 -2.546259 0.279444 -0.613050 2.724902 4.391760 -3.912536 -9.880306 -81.944082 -68.672048 113.380919 -14.833673 -7.135624 7.872634 -5.866549 -1.459320 2.200198 2.175164 -8.806109 7.216478 59.990500 -53.831422 -99.081455 7.696540 -10.109436 2.389290 0.060272 -58.450191 13.154729 -109.235524 88.801462 -113.673363 -10.571960 -21.978299 14.325777 0.016288 -0.037563 0.004769 9.971237 -55.427728 -5.214202 114.251021 77.377716 112.416148 -6.619262 -23.636914 0.537046 0.053040 0.207138 0.023036
-4.174254 55.277972 -23.501648 179.362385 -16.331177 -1.815648 0.907862 15.501510 0.668173 0.100932 1.483765 0.059478 0.119515 2.466670 0.125237 0.869050 13.826638 0.728622 0.156504 15.239033 -2.400702 0.877478 -9.627227 -2.632623 0.275107 -0.582620 2.706426 4.402083 -3.937728 -9.872338 -80.471349 -67.678259 112.069052 -15.118995 -6.349134 8.091933 -5.869123 -1.424545 2.209529 2.233813 -8.787785 7.134687 59.766932 -53.356165 -98.839616 7.939775 -10.185072 2.334259 0.067338 -58.448962 13.154723 -109.135877 88.802153 -113.562314 -10.627837 -21.979444 14.331782 0.013744 -0.029150 0.009078 9.970624 -55.426863 -5.216598 114.242221 77.375754 112.412267 -6.618601 -23.635506 0.535046 0.053790 0.207217 0.022271
-4.175137 55.278306 -23.502249 179.363763 -16.332904 -1.815862 0.886829 15.492310 0.672214 0.084847 1.476339 0.066415 0.130556 2.470444 0.119528 0.871597 13.835376 0.722856 0.304176 15.313466 -2.445794 0.955684 -9.591737 -2.689737 0.249270 -0.533162 2.694694 4.436523 -3.979651 -9.873501 -79.133225 -66.671689 110.873088 -15.374443 -5.619176 8.328835 -5.869374 -1.390037 2.221616 2.299184 -8.761376 7.051055 59.572374 -52.921842 -98.595655 8.191749 -10.324843 2.270910 0.069287 -58.446983 13.165864 -108.858726 88.790216 -113.270717 -10.741629 -21.975469 14.348324 0.008860 -0.018700 0.013496 9.969860 -55.425407 -5.218409 114.239551 77.376995 112.411779 -6.618174 -23.632839 0.534472 0.055790 0.206343 0.022414
-4.175950 55.278779 -23.503104 179.361634 -16.336259 -1.814475 0.878689 15.489489 0.673686 0.088925 1.479043 0.064282 0.114372 2.457641 0.127800 0.852491 13.830320 0.728724 0.460165 15.379856 -2.513477 1.082607 -9.536195 -2.772109 0.279574 -0.504625 2.667993 4.341280 -3.980895 -9.830788 -77.910856 -65.702227 109.851183 -15.569958 -4.912771 8.581572 -5.848729 -1.342256 2.218788 2.355342 -8.743458 6.982558 59.398447 -52.493925 -98.334236 8.465514 -10.474128 2.185753 0.074100 -58.442661 13.160966 -108.962503 88.794965 -113.376524 -10.748081 -21.980010 14.351881 0.008337 -0.018486 0.012110 9.976617 -55.422688 -5.227056 114.232063 77.375341 112.408249 -6.609745 -23.628493 0.532995 0.051001 0.202939 0.020038
-4.175830 55.279137 -23.503250 179.363314 -16.335179 -1.819104 0.868555 15.482437 0.680000 0.078307 1.471055 0.069530 0.115505 2.457485 0.128846 0.834882 13.819392 0.734513 0.612187 15.441945 -2.582798 1.252681 -9.472020 -2.879450 0.282920 -0.460674 2.640241 4.259252 -3.996492 -9.779320 -76.872177 -64.733478 108.992763 -15.732739 -4.191066 8.835825 -5.845153 -1.286408 2.224907 2.449344 -8.702289 6.894040 59.242163 -52.077782 -98.110970 8.759907 -10.585222 2.070862 0.063700 -58.442174 13.164391 -109.130313 88.805770 -113.553648 -10.719450 -21.983943 14.350921 0.006868 -0.024217 0.009733 9.970623 -55.428896 -5.223290 114.249294 77.374183 112.426562 -6.602615 -23.620660 0.534456 0.048357 0.196247 0.017470
-4.176079 55.279788 -23.504192 179.361775 -16.339266 -1.820213 0.854949 15.475828 0.684396 0.077051 1.469710 0.070243 0.114020 2.458133 0.135659 0.821878 13.811503 0.734261 0.780574 15.502794 -2.653116 1.445981 -9.405952 -3.002508 0.275699 -0.422522 2.613541 4.175877 -4.010579 -9.717702 -76.018351 -63.763397 108.308213 -15.911504 -3.462549 9.081242 -5.849119 -1.239284 2.238955 2.573880 -8.632852 6.783134 59.106934 -51.643640 -97.946269 9.079840 -10.664356 1.936924 0.061554 -58.434443 13.169797 -108.988634 88.802347 -113.416613 -10.729440 -21.991138 14.358662 0.009846 -0.017563 0.008313 9.967081 -55.426252 -5.218415 114.259762 77.375671 112.436567 -6.601507 -23.617460 0.535174 0.045015 0.193976 0.017519
-4.176555 55.280436 -23.504797 179.358661 -16.341722 -1.819448 0.831899 15.465476 0.702033 0.074105 1.467829 0.072087 0.131235 2.467951 0.117272 0.807268 13.800045 0.749849 0.957278 15.562803 -2.733009 1.663519 -9.340086 -3.139473 0.229304 -0.354634 2.572186 4.107229 -4.050869 -9.634427 -75.296848 -62.799447 107.755322 -16.117126 -2.748329 9.336192 -5.856936 -1.199048 2.243260 2.699349 -8.576356 6.677128 58.988894 -51.122503 -97.799639 9.436393 -10.721683 1.793636 0.065236 -58.429371 13.183553 -108.515826 88.791166 -112.931636 -10.830173 -21.990836 14.374904 0.021205 -0.006066 0.011267 9.966752 -55.424895 -5.214665 114.268996 77.375114 112.444836 -6.604611 -23.614927 0.536070 0.048117 0.192314 0.018792
